<svg width="213" height="71" viewBox="0 0 213 71" fill="none" xmlns="http://www.w3.org/2000/svg">
<path d="M2.448 70.8V35.28H9.408V70.8H2.448ZM2.4 31.2V25.776H9.456V31.2H2.4ZM21.1234 60C18.5314 60 16.5474 59.344 15.1714 58.032C13.7954 56.72 13.1074 54.848 13.1074 52.416C13.1074 50.016 13.7954 48.16 15.1714 46.848C16.5474 45.536 18.5314 44.88 21.1234 44.88H39.5554V43.728C39.5554 41.776 38.5954 40.8 36.6754 40.8H16.3234V35.28H38.4994C41.4114 35.28 43.4754 35.952 44.6914 37.296C45.9074 38.608 46.5154 40.464 46.5154 42.864V60H21.1234ZM22.3714 54.48H39.5554V50.4H22.3714C21.7634 50.4 21.2834 50.592 20.9314 50.976C20.6114 51.328 20.4514 51.808 20.4514 52.416C20.4514 53.024 20.6114 53.52 20.9314 53.904C21.2834 54.288 21.7634 54.48 22.3714 54.48ZM51.141 60V54.912L70.629 40.8H51.957V35.28H80.805V40.368L61.317 54.48H80.805V60H51.141ZM115.857 60H108.897V25.68H115.857V60ZM114.657 60H98.0966C93.8086 60 90.4646 58.944 88.0646 56.832C85.6646 54.72 84.4646 51.664 84.4646 47.664C84.4646 43.632 85.6646 40.56 88.0646 38.448C90.4646 36.336 93.8086 35.28 98.0966 35.28H114.177V40.8H98.0966C96.0166 40.8 94.4166 41.376 93.2966 42.528C92.2086 43.648 91.6646 45.36 91.6646 47.664C91.6646 49.936 92.2086 51.648 93.2966 52.8C94.4166 53.92 96.0166 54.48 98.0966 54.48H114.657V60ZM127.767 60C125.175 60 123.191 59.344 121.815 58.032C120.439 56.72 119.751 54.848 119.751 52.416C119.751 50.016 120.439 48.16 121.815 46.848C123.191 45.536 125.175 44.88 127.767 44.88H146.199V43.728C146.199 41.776 145.239 40.8 143.319 40.8H122.967V35.28H145.143C148.055 35.28 150.119 35.952 151.335 37.296C152.551 38.608 153.159 40.464 153.159 42.864V60H127.767ZM129.015 54.48H146.199V50.4H129.015C128.407 50.4 127.927 50.592 127.575 50.976C127.255 51.328 127.095 51.808 127.095 52.416C127.095 53.024 127.255 53.52 127.575 53.904C127.927 54.288 128.407 54.48 129.015 54.48ZM157.785 60V52.256L192.153 22.688H159.257V14.368H207.001V22.112L172.569 51.68H206.873V60H157.785Z" fill="#333332"/>
<line x1="17" y1="66.5" x2="207" y2="66.5" stroke="black"/>
</svg>
